Coordinates
version=1
nRows=15
nColumns=42
inDegrees=yes

Units are S.I. units (second, meters, Newtons, ...)
If the header above contains a line with 'inDegrees', this indicates whether rotational values are in degrees (yes) or radians (no).

endheader
time	pelvis_tilt	pelvis_list	pelvis_rotation	pelvis_tx	pelvis_ty	pelvis_tz	hip_flexion_r	hip_adduction_r	hip_rotation_r	knee_angle_r	knee_adduction_r	knee_angle_r_beta	ankle_angle_r	subtalar_angle_r	mtp_angle_r	hip_flexion_l	hip_adduction_l	hip_rotation_l	knee_angle_l	knee_adduction_l	knee_angle_l_beta	ankle_angle_l	subtalar_angle_l	mtp_angle_l	lumbar_extension	lumbar_bending	lumbar_rotation	arm_flex_r	arm_add_r	arm_rot_r	elbow_flex_r	pro_sup_r	wrist_flex_r	wrist_dev_r	arm_flex_l	arm_add_l	arm_rot_l	elbow_flex_l	pro_sup_l	wrist_flex_l	wrist_dev_l
      0.00000000	     13.65105385	     -0.98688047	      6.70237584	     -2.59656604	      0.87862547	      0.17350764	    -28.21462293	      6.03755611	    -20.87023498	      1.52166598	      6.03880273	      0.02655808	     20.40882211	     36.45113979	     -9.62747439	     12.16652497	     -0.75638604	    -13.54222953	     26.80712680	     -7.68690877	      0.46787263	     19.68514457	     19.03851371	     -9.62747439	    -39.93993503	      5.39640364	      1.63423835	     10.50534966	    -18.19175938	      8.22203649	     46.77741099	     90.00000001	      0.00000000	      0.00000000	      2.11714564	    -12.40417575	     -1.54818330	     46.11138159	     90.00000001	      0.00000000	      0.00000000
      0.01000000	     13.32916646	     -1.47549068	      6.90577614	     -2.58549509	      0.87597954	      0.17289502	    -28.70833701	      6.78725997	    -21.26825419	      1.36581696	      5.89910975	      0.02383800	     20.59878720	     36.56823588	     -9.58389202	     13.38358514	     -0.98298619	    -12.65462425	     24.58555317	     -6.75671381	      0.42909885	     18.66956953	     20.00363197	     -9.58389202	    -39.54430664	      5.87357793	      1.86184231	     10.97427845	    -18.42887794	      7.70873028	     47.12506326	     90.00000001	      0.00000000	      0.00000000	      1.49517154	    -12.17130358	     -1.90119806	     45.61157198	     90.00000001	      0.00000000	      0.00000000
      0.02000000	     13.00765314	     -1.77890742	      7.13012316	     -2.57420150	      0.87336699	      0.17188526	    -29.14228473	      7.19944613	    -22.20760312	      1.54305799	      5.97127477	      0.02693144	     20.81836512	     37.05968411	     -9.51795223	     14.41067932	     -0.92466966	    -11.84667207	     22.24721836	     -5.94048339	      0.38828721	     17.56358310	     20.93719563	     -9.51795223	    -39.13171618	      6.21772115	      1.94763556	     11.37183838	    -18.50243395	      6.69415960	     47.43881779	     90.00000001	      0.00000000	      0.00000000	      0.92659341	    -11.81171063	     -2.66246942	     44.97331420	     90.00000001	      0.00000000	      0.00000000
      0.03000000	     12.56336676	     -2.39287280	      7.29847177	     -2.56306051	      0.87055238	      0.17129476	    -29.32991159	      8.03083601	    -22.47492597	      1.66023494	      5.71169828	      0.02897657	     21.04045453	     37.14189209	     -9.48278386	     15.67243723	     -1.28243495	    -10.98871871	     20.29778555	     -5.09660384	      0.35426319	     16.81894605	     21.82859444	     -9.48278386	    -38.59158884	      6.77485463	      2.21067368	     11.74635514	    -18.71646862	      6.19137852	     47.78242644	     90.00000001	      0.00000000	      0.00000000	      0.33899218	    -11.55987376	     -2.97908114	     44.39788735	     90.00000001	      0.00000000	      0.00000000
      0.04000000	     12.16273466	     -2.74884909	      7.40876157	     -2.55162348	      0.86795366	      0.17038851	    -29.50426802	      8.41799165	    -23.18263339	      2.14177347	      5.62872951	      0.03738100	     21.28948868	     37.51529647	     -9.40519431	     16.62756619	     -1.28454249	    -10.24037849	     18.22678979	     -4.43666509	      0.31811749	     15.98752627	     22.71660663	     -9.40519431	    -38.09302252	      7.09206659	      2.34783088	     12.00791914	    -18.67682138	      5.02148921	     48.09214880	     90.00000001	      0.00000000	      0.00000000	     -0.13902193	    -11.11481660	     -3.84674577	     43.58240276	     90.00000001	      0.00000000	      0.00000000
      0.05000000	     11.76438593	     -3.34774640	      7.46064141	     -2.54021996	      0.86539516	      0.16990229	    -29.58521756	      9.16402174	    -23.16717441	      2.56359208	      5.19290668	      0.04474312	     21.50167574	     37.49414489	     -9.36421325	     17.66230935	     -1.66711324	     -9.52751333	     16.64234421	     -3.76167937	      0.29046370	     15.61888595	     23.47602861	     -9.36421325	    -37.59692382	      7.57464696	      2.64749507	     12.24923187	    -18.84227800	      4.56365828	     48.36500394	     90.00000001	      0.00000000	      0.00000000	     -0.65324270	    -10.84805318	     -4.12006285	     42.93357225	     90.00000001	      0.00000000	      0.00000000
      0.06000000	     11.41003265	     -3.81847550	      7.42442621	     -2.52862616	      0.86306814	      0.16935338	    -29.64236689	      9.64586026	    -23.18734881	      3.24598571	      4.81896936	      0.05665314	     21.68786782	     37.58336465	     -9.32125212	     18.49561807	     -1.89289195	     -8.99087406	     15.20669114	     -3.29097002	      0.26540683	     15.28861049	     24.26909570	     -9.32125212	    -37.15086063	      7.90522662	      2.90255549	     12.41644928	    -18.92540279	      3.90353378	     48.64410651	     90.00000001	      0.00000000	      0.00000000	     -1.08830812	    -10.55085580	     -4.57637244	     42.14354814	     90.00000001	      0.00000000	      0.00000000
      0.07000000	     11.10525487	     -4.19888251	      7.26422393	     -2.51680716	      0.86101509	      0.16888669	    -29.68324258	      9.90229954	    -23.27998115	      4.18135634	      4.47744866	      0.07297844	     21.90671533	     37.74976933	     -9.27326588	     19.17748551	     -2.05886470	     -8.69420448	     14.10159341	     -2.99890047	      0.24611923	     15.06878100	     25.01462630	     -9.27326588	    -36.76411636	      8.08901839	      3.18191534	     12.50124828	    -18.91043848	      3.13870955	     48.92834991	     90.00000001	      0.00000000	      0.00000000	     -1.48748340	    -10.21715089	     -5.17693123	     41.33450927	     90.00000001	      0.00000000	      0.00000000
      0.08000000	     10.84961085	     -4.55353633	      7.02631492	     -2.50474600	      0.85919099	      0.16850904	    -29.71067771	     10.08261376	    -23.27097398	      5.27019611	      4.04924841	      0.09198227	     22.07776717	     37.87878334	     -9.23271924	     19.77359951	     -2.24887469	     -8.54643153	     13.47655336	     -2.82717196	      0.23521023	     15.03091380	     25.58252746	     -9.23271924	    -36.42644114	      8.20864531	      3.47630777	     12.52544846	    -18.90525942	      2.55305658	     49.17476028	     90.00000001	      0.00000000	      0.00000000	     -1.88541573	     -9.92617750	     -5.68011252	     40.59030108	     90.00000001	      0.00000000	      0.00000000
      0.09000000	     10.63003115	     -4.83468297	      6.73269978	     -2.49238608	      0.85761330	      0.16809863	    -29.73517895	     10.11279634	    -23.19814767	      6.50564252	      3.62078351	      0.11354488	     22.19633112	     37.98524702	     -9.19330495	     20.24117571	     -2.36903657	     -8.50113386	     13.21755260	     -2.80833607	      0.23068981	     15.07739752	     26.09636377	     -9.19330495	    -36.10002542	      8.23899130	      3.75592420	     12.46454669	    -18.88973382	      2.02250071	     49.37701063	     90.00000001	      0.00000000	      0.00000000	     -2.24633020	     -9.66012937	     -6.20919167	     39.78024133	     90.00000001	      0.00000000	      0.00000000
      0.10000000	     10.40496768	     -5.08658701	      6.47987075	     -2.47990989	      0.85618536	      0.16752885	    -29.76137652	     10.10969277	    -22.80536921	      7.66962359	      3.22420999	      0.13386018	     22.03240644	     37.93946788	     -9.17583590	     20.70119966	     -2.38264765	     -8.22462211	     13.42416776	     -2.99562412	      0.23429593	     15.03964236	     26.18264312	     -9.17583590	    -35.77204315	      8.26902526	      3.89069930	     12.44299996	    -18.87595589	      1.81262577	     49.46186873	     90.00000001	      0.00000000	      0.00000000	     -2.72683307	     -9.50973312	     -6.38790999	     39.26979938	     90.00000001	      0.00000000	      0.00000000
      0.11000000	     10.26114219	     -5.17552660	      6.08858851	     -2.46688172	      0.85510250	      0.16694020	    -29.77472177	      9.80006966	    -22.99166166	      9.23224636	      2.76555858	      0.16113310	     22.00258085	     38.09121769	     -9.14183034	     20.93196886	     -2.33747685	     -8.34147303	     13.96902399	     -3.19663455	      0.24380546	     15.14255770	     26.44149082	     -9.14183034	    -35.48191633	      8.09279681	      4.13721425	     12.19422273	    -18.82370801	      1.31960673	     49.56690449	     90.00000001	      0.00000000	      0.00000000	     -2.94993780	     -9.22919210	     -6.99890332	     38.21309674	     90.00000001	      0.00000000	      0.00000000
      0.12000000	     10.05838845	     -5.27200696	      5.86358813	     -2.45375030	      0.85412091	      0.16624686	    -29.79711386	      9.62339920	    -22.56586304	     10.48807269	      2.33371150	      0.18305140	     21.64774758	     38.06810265	     -9.12747217	     21.14489785	     -2.15887799	     -7.93615287	     14.66914225	     -3.58411983	      0.25602483	     14.98953627	     26.44848198	     -9.12747217	    -35.12922079	      7.96746266	      4.14256382	     11.97502160	    -18.69756291	      1.19185083	     49.52891337	     90.00000001	      0.00000000	      0.00000000	     -3.37307185	     -9.14444259	     -7.17648936	     37.74287889	     90.00000001	      0.00000000	      0.00000000
      0.13000000	      9.93825929	     -5.17528557	      5.60073588	     -2.44008764	      0.85337695	      0.16532447	    -29.80706742	      9.08392096	    -23.02246613	     12.17592628	      1.97937511	      0.21251000	     21.14749460	     38.19199178	     -9.09774360	     21.36008369	     -1.84668484	     -8.21449872	     16.03689025	     -4.11580338	      0.27989654	     14.89003899	     26.24976081	     -9.09774360	    -34.78888232	      7.66272440	      4.12462819	     11.58444088	    -18.55308055	      0.84112650	     49.40921288	     90.00000001	      0.00000000	      0.00000000	     -3.56775116	     -8.98820262	     -7.70857190	     36.74362962	     90.00000001	      0.00000000	      0.00000000
      0.14000000	      9.81417382	     -5.00487956	      5.42300039	     -2.42625110	      0.85286987	      0.16427764	    -29.81833478	      8.56354115	    -23.21486020	     13.72907685	      1.54720235	      0.23961759	     20.45012921	     38.28018118	     -9.06973163	     21.47125710	     -1.39484855	     -8.22049670	     17.47376455	     -4.72964484	      0.30497472	     14.74287715	     26.14198911	     -9.06973163	    -34.44455813	      7.31342317	      3.95955741	     11.16515438	    -18.34629620	      0.59637854	     49.23195626	     90.00000001	      0.00000000	      0.00000000	     -3.82103738	     -8.90309922	     -8.14109432	     36.02365245	     90.00000001	      0.00000000	      0.00000000
